<?xml version="1.0" encoding="utf-8"?>
<svg width="62px" height="59px" viewBox="0 0 62 59" version="1.1" xmlns:xlink="http://www.w3.org/1999/xlink" xmlns="http://www.w3.org/2000/svg">
  <g id="LabVIEW图标">
    <path d="M8.51713 3.93626L50.5514 23.3627Q50.7433 23.4514 50.9284 23.5534Q51.1136 23.6553 51.2911 23.77Q51.4686 23.8847 51.6376 24.0117Q51.8066 24.1386 51.9662 24.2771Q52.1259 24.4156 52.2754 24.565Q52.4249 24.7144 52.5635 24.8739Q52.7021 25.0335 52.8292 25.2024Q52.9562 25.3713 53.0711 25.5487Q53.1859 25.7261 53.288 25.9112Q53.3901 26.0963 53.4789 26.288Q53.5677 26.4798 53.6428 26.6774Q53.7179 26.875 53.7789 27.0773Q53.8399 27.2797 53.8865 27.4858Q53.9332 27.692 53.9652 27.9009Q53.9971 28.1098 54.0144 28.3204Q54.0316 28.5311 54.0339 28.7424Q54.0363 28.9538 54.0238 29.1648Q54.0112 29.3757 53.9839 29.5853Q53.9566 29.7949 53.9145 30.002Q53.8725 30.2092 53.816 30.4128Q53.7595 30.6165 53.6889 30.8157Q53.6182 31.0149 53.5337 31.2086Q53.4492 31.4023 53.3512 31.5896Q53.2533 31.7769 53.1424 31.9568Q53.0315 32.1368 52.9083 32.3084Q52.785 32.4801 52.65 32.6427Q52.5149 32.8053 52.3688 32.958Q52.2226 33.1107 52.0661 33.2527Q51.9096 33.3947 51.7435 33.5254Q51.5773 33.656 51.4024 33.7747Q51.2275 33.8933 51.0447 33.9994Q50.8619 34.1054 50.672 34.1983L8.63772 54.7722Q8.46707 54.8558 8.29147 54.9283Q8.11588 55.0009 7.93604 55.0622Q7.75621 55.1235 7.57285 55.1733Q7.3895 55.2231 7.20336 55.2612Q7.01722 55.2993 6.82905 55.3256Q6.64087 55.3518 6.45141 55.3661Q6.26195 55.3804 6.07197 55.3827Q5.88198 55.385 5.69223 55.3752Q5.50248 55.3655 5.31373 55.3437Q5.12498 55.322 4.93798 55.2884Q4.75098 55.2547 4.56649 55.2094Q4.38199 55.164 4.20074 55.107Q4.01948 55.05 3.8422 54.9817Q3.66491 54.9133 3.4923 54.8339Q3.3197 54.7545 3.15246 54.6644Q2.98522 54.5742 2.82402 54.4736Q2.66283 54.373 2.50831 54.2625Q2.3538 54.1519 2.2066 54.0318Q2.05939 53.9117 1.92008 53.7825Q1.78077 53.6533 1.64991 53.5155Q1.51905 53.3778 1.39717 53.232Q1.27529 53.0863 1.16287 52.9331Q1.05046 52.7799 0.947962 52.6199Q0.845464 52.4599 0.753293 52.2938Q0.661122 52.1277 0.579648 51.956Q0.498174 51.7844 0.427723 51.6079Q0.357271 51.4315 0.298125 51.2509Q0.238979 51.0703 0.191375 50.8864Q0.143772 50.7025 0.107901 50.5159Q0.0720301 50.3293 0.0480361 50.1408Q0.0240422 49.9524 0.0120211 49.7627Q0 49.5731 0 49.3831L0 9.38273Q0 9.19482 0.0117585 9.00728Q0.023517 8.81974 0.0469878 8.6333Q0.0704587 8.44686 0.10555 8.26226Q0.140641 8.07765 0.187215 7.89561Q0.233789 7.71356 0.291664 7.53479Q0.349538 7.35601 0.418486 7.18121Q0.487434 7.0064 0.567185 6.83626Q0.646936 6.66611 0.737178 6.50129Q0.82742 6.33647 0.927799 6.17761Q1.02818 6.01876 1.1383 5.8665Q1.24842 5.71424 1.36786 5.56917Q1.48729 5.4241 1.61557 5.28679Q1.74385 5.14947 1.88046 5.02046Q2.01708 4.89144 2.16151 4.77122Q2.30593 4.65101 2.4576 4.54007Q2.60926 4.42913 2.76757 4.32789Q2.92588 4.22666 3.09021 4.13553Q3.25454 4.0444 3.42426 3.96373Q3.59397 3.88306 3.7684 3.81317Q3.94283 3.74328 4.12129 3.68445Q4.29975 3.62561 4.48154 3.57805Q4.66334 3.5305 4.84775 3.49441Q5.03216 3.45832 5.21847 3.43385Q5.40478 3.40937 5.59225 3.3966Q5.77973 3.38383 5.96763 3.38282Q6.15554 3.3818 6.34314 3.39255Q6.53075 3.4033 6.71731 3.42576Q6.90387 3.44823 7.08866 3.48232Q7.27345 3.51642 7.45575 3.56201Q7.63804 3.6076 7.81712 3.66451Q7.99621 3.72142 8.17138 3.78942Q8.34656 3.85743 8.51713 3.93626L8.51713 3.93626Z" id="小路" fill="#FFC500" fill-rule="evenodd" stroke="none" />
    <path d="M8 28L29 28L29 31.5L8 31.5L8 28Z" id="矩形" fill="#FFFFFF" fill-rule="evenodd" stroke="none" />
    <path d="M7.75 31.25L7.75 27.75L28.75 27.75L28.75 31.25L7.75 31.25Z" transform="rotate(90 18.25 29.5)" id="矩形" fill="#FFFFFF" fill-rule="evenodd" stroke="none" />
  </g>
</svg>