<?xml version="1.0" encoding="utf-8"?>
<svg width="18px" height="18px" viewBox="0 0 18 18" version="1.1" xmlns:xlink="http://www.w3.org/1999/xlink" xmlns="http://www.w3.org/2000/svg">
  <g id="许可图标">
    <path d="M9.88325 0.884322L10.7242 0.281569C11.5652 -0.321184 12.802 0.130881 13.0493 1.13547L13.3461 2.19029C13.4945 2.79304 14.0387 3.2451 14.6818 3.34556L15.7207 3.44602C16.7595 3.54648 17.4026 4.65153 16.9574 5.60589L16.5122 6.56025C16.2648 7.163 16.3638 7.86621 16.809 8.31828L17.551 9.07172C18.2931 9.82516 18.0952 11.0809 17.1058 11.533L16.1659 11.985C15.5723 12.2362 15.226 12.8892 15.2754 13.4919L15.3744 14.5467C15.4733 15.6015 14.4839 16.4554 13.4945 16.1541L12.4557 15.8527C11.862 15.702 11.1695 15.9029 10.8232 16.4554L10.2295 17.3596C9.6359 18.2135 8.34969 18.2135 7.75605 17.3596L7.16242 16.4554C6.81613 15.9029 6.12356 15.702 5.52992 15.8527L4.49106 16.1541C3.45219 16.4554 2.51227 15.6015 2.61121 14.5467L2.71015 13.4919C2.75962 12.8389 2.41333 12.2362 1.8197 11.985L0.879772 11.533C-0.0601514 11.0809 -0.3075 9.82516 0.434545 9.07172L1.17659 8.31828C1.62182 7.86621 1.77023 7.163 1.47341 6.56025L1.02818 5.60589C0.582955 4.65153 1.22606 3.49625 2.26492 3.44602L3.30379 3.34556C3.94689 3.29533 4.49106 2.84327 4.63947 2.19029L4.93629 1.13547C5.18363 0.0806515 6.42037 -0.321183 7.26136 0.28157L8.10234 0.884322C8.69598 1.23593 9.38855 1.23593 9.88325 0.884322L9.88325 0.884322Z" id="形状" fill="#03B585" fill-rule="evenodd" stroke="none" />
    <g id="编组" transform="translate(5.2941284 6.3529663)">
      <path d="M2.31618 4.63235L6.94852 0" id="线条" fill="none" fill-rule="evenodd" stroke="#FFFFFF" stroke-width="2" stroke-linecap="round" stroke-linejoin="round" />
      <path d="M0 2.31618L2.31617 4.63235" id="线条" fill="none" fill-rule="evenodd" stroke="#FFFFFF" stroke-width="2" stroke-linecap="round" stroke-linejoin="round" />
    </g>
  </g>
</svg>