<?xml version="1.0" encoding="utf-8"?>
<svg width="15px" height="15px" viewBox="0 0 15 15" version="1.1" xmlns:xlink="http://www.w3.org/1999/xlink" xmlns="http://www.w3.org/2000/svg">
  <defs>
    <path d="M10 0C12.7618 0 15 2.2382 15 5L15 15L0 15L0 0L10 0Z" id="path_1" />
    <clipPath id="clip_1">
      <use xlink:href="#path_1" clip-rule="evenodd" fill-rule="evenodd" />
    </clipPath>
  </defs>
  <g id="顶栏图标">
    <path d="M10 0C12.7618 0 15 2.2382 15 5L15 15L0 15L0 0L10 0Z" id="矩形" fill="#E57707" stroke="none" />
    <g clip-path="url(#clip_1)">
      <path d="M4.3 4.63875L4.3 10.5187Q4.3 10.5499 4.30389 10.5809Q4.30778 10.6119 4.3155 10.6421Q4.32322 10.6724 4.33465 10.7014Q4.34607 10.7305 4.36103 10.7578Q4.37599 10.7852 4.39424 10.8106Q4.4125 10.8359 4.43376 10.8587Q4.45503 10.8816 4.47898 10.9016Q4.50293 10.9216 4.52919 10.9385Q4.55544 10.9554 4.5836 10.9688Q4.61175 10.9823 4.64137 10.9922Q4.67098 11.002 4.70159 11.0081Q4.73221 11.0142 4.76334 11.0165Q4.79447 11.0187 4.82564 11.017Q4.85681 11.0154 4.88753 11.0098Q4.91825 11.0043 4.94804 10.995Q4.97783 10.9857 5.00622 10.9727L10.8901 8.28726Q10.9216 8.27288 10.9508 8.2543Q10.98 8.23572 11.0063 8.21329Q11.0327 8.19085 11.0557 8.16499Q11.0787 8.13913 11.0979 8.11035Q11.1172 8.08156 11.1322 8.05039Q11.1473 8.01923 11.1579 7.98628Q11.1685 7.95334 11.1745 7.91924Q11.1804 7.88514 11.1816 7.85055Q11.1828 7.81596 11.1792 7.78153Q11.1756 7.74711 11.1673 7.7135Q11.159 7.6799 11.1462 7.64777Q11.1333 7.61564 11.1161 7.58559Q11.0989 7.55554 11.0778 7.52815Q11.0566 7.50076 11.0319 7.47656Q11.0071 7.45236 10.9793 7.4318Q10.9514 7.41124 10.921 7.39473L5.03713 4.2002Q5.00875 4.18479 4.97861 4.17316Q4.94848 4.16154 4.9171 4.1539Q4.88572 4.14626 4.85362 4.14272Q4.82151 4.13919 4.78922 4.13982Q4.75693 4.14046 4.72499 4.14525Q4.69305 4.15004 4.66199 4.15891Q4.63094 4.16778 4.60129 4.18058Q4.57163 4.19338 4.54388 4.20989Q4.51612 4.2264 4.49072 4.24636Q4.46533 4.26631 4.44271 4.28937Q4.4201 4.31243 4.40065 4.33822Q4.3812 4.364 4.36523 4.39208Q4.34927 4.42015 4.33706 4.45005Q4.32484 4.47995 4.31659 4.51117Q4.30833 4.5424 4.30417 4.57443Q4.3 4.60645 4.3 4.63875Z" id="小路" fill="#FFFFFF" fill-rule="evenodd" stroke="none" />
    </g>
  </g>
</svg>